<svg xmlns="http://www.w3.org/2000/svg" viewBox="0 0 1200 1200"><path d="M600 100q15 0 34 1.5t30 3.5l11 1q10 2 17.5 10.5T700 135v224l158-158q7-7 18-8t19 6l106 106q7 8 6 19t-8 18L841 500h224q10 0 18.5 7.5T1094 525q6 41 6 75 0 15-1.5 34t-3.5 30l-1 11q-2 10-10.5 17.5T1065 700H841l158 158q7 7 8 18t-6 19l-106 106q-8 7-19 6t-18-8L700 841v224q0 10-7.5 18.5T675 1094q-41 6-75 6-15 0-34-1.5t-30-3.5l-11-1q-10-2-17.5-10.5T500 1065V841L342 999q-7 7-18 8t-19-6L199 895q-7-8-6-19t8-18l158-158H135q-10 0-18.5-7.5T106 675q-6-41-6-75 0-15 1.5-34t3.5-30l1-11q2-10 10.5-17.5T135 500h224L201 342q-7-7-8-18t6-19l106-106q8-7 19-6t18 8l158 158V135q0-10 7.5-18.5T525 106q41-6 75-6z"/></svg>