<svg xmlns="http://www.w3.org/2000/svg" viewBox="0 0 1200 1200"><path d="M250 100h700q21 0 35.5 14.5T1000 150v100q0 21-14.5 35.5T950 300H250q-21 0-35.5-14.5T200 250V150q0-21 14.5-35.5T250 100zM50 400h1100q21 0 35.5 14.5T1200 450v100q0 21-14.5 35.5T1150 600H50q-21 0-35.5-14.5T0 550V450q0-21 14.5-35.5T50 400zm200 300h700q21 0 35.5 14.5T1000 750v100q0 21-14.5 35.5T950 900H250q-21 0-35.5-14.5T200 850V750q0-21 14.5-35.5T250 700zM50 1000h1100q21 0 35.5 14.5t14.5 35.5v100q0 21-14.5 35.5T1150 1200H50q-21 0-35.5-14.5T0 1150v-100q0-21 14.5-35.5T50 1000z"/></svg>