<svg xmlns="http://www.w3.org/2000/svg" viewBox="0 0 1200 1200"><path d="M500 250V150q0-21 14.5-35.5T550 100h600q21 0 35.5 14.5T1200 150v100q0 21-14.5 35.5T1150 300H550q-21 0-35.5-14.5T500 250zM100 550V450q0-21 14.5-35.5T150 400h1000q21 0 35.5 14.5T1200 450v100q0 21-14.5 35.5T1150 600H150q-21 0-35.5-14.5T100 550zm200 300V750q0-21 14.5-35.5T350 700h800q21 0 35.5 14.5T1200 750v100q0 21-14.5 35.5T1150 900H350q-21 0-35.5-14.5T300 850zM0 1150v-100q0-21 14.5-35.5T50 1000h1100q21 0 35.5 14.5t14.5 35.5v100q0 21-14.5 35.5T1150 1200H50q-21 0-35.5-14.5T0 1150z"/></svg>