<svg xmlns="http://www.w3.org/2000/svg" viewBox="0 0 1200 1200"><path d="M50 100h600q21 0 35.5 14.5T700 150v100q0 21-14.5 35.5T650 300H50q-21 0-35.5-14.5T0 250V150q0-21 14.5-35.5T50 100zm0 300h1000q21 0 35.5 14.5T1100 450v100q0 21-14.5 35.5T1050 600H50q-21 0-35.5-14.5T0 550V450q0-21 14.5-35.5T50 400zm0 300h800q21 0 35.5 14.5T900 750v100q0 21-14.5 35.5T850 900H50q-21 0-35.5-14.5T0 850V750q0-21 14.5-35.5T50 700zm0 300h1100q21 0 35.5 14.5t14.5 35.5v100q0 21-14.5 35.5T1150 1200H50q-21 0-35.5-14.5T0 1150v-100q0-21 14.5-35.5T50 1000z"/></svg>