<svg xmlns="http://www.w3.org/2000/svg" viewBox="0 0 1200 1200"><path d="M753 559q5 1 14.5 4.5t36 15.5 50.5 26.5 53.5 40T958 700t35.5 70 14.5 87q0 67-27.5 125.5T909 1080t-98.5 66.5T702 1187t-102 13H100v-89q41-7 70.5-32.5T200 1013V186q0-24-.5-34t-3.5-24-8.5-19.5-17-13.5-28-12.5T100 71V0l471 1q57 0 115.5 20.5t108 57 80.5 94T906 297q0 51-15.5 96.5t-38 74.5-45 50.5T769 549zm-353-59h139q78 0 130.5-48.5T722 329q0-41-8.5-70.5T684 203t-62.5-39.5T518 150H400v350zm0 500h216q80 0 121-50.5T778 819q0-90-62.5-154.5T559 600H400v400z"/></svg>