<svg xmlns="http://www.w3.org/2000/svg" viewBox="0 0 1200 1200"><path d="M1010 190q111 111 150.5 260.5t0 299T1010 1010q-83 83-191.5 126.5T600 1180t-218.5-43.5T190 1010Q79 899 39.5 749.5t0-299T190 190q83-83 191.5-126.5T600 20t218.5 43.5T1010 190zm-534-55q-4 0-8 1-121 34-209.5 122.5T136 468q-4 12 2.5 23t18.5 14l36 9q3 1 7 1 23 0 29-22 27-96 98-166 70-71 166-98 11-3 17.5-13.5T514 193l-9-35q-3-13-14-19-7-4-15-4zm36 145q-4 0-9 2-80 24-138.5 82.5T282 503q-4 13 2 24t19 14l34 9q4 1 8 1 22 0 28-21 18-58 58.5-98.5T529 373q12-3 18-13.5t3-21.5l-9-35q-3-12-14-19-7-4-15-4zm207.5 200.5Q670 431 600 431t-119.5 49.5T431 600t49.5 119.5T600 769t119.5-49.5T769 600t-49.5-119.5zM855 649q-22 0-28 21-18 58-58.5 98.5T670 826q-11 4-17 14.5t-3 21.5l9 35q3 12 14 19 7 4 15 4 4 0 9-2 80-24 138.5-82.5T918 697q4-13-2.5-24T897 659l-34-9q-4-1-8-1zm145 36q-23 0-29 22-27 96-98 166-70 71-166 98-11 3-17.5 13.5T686 1007l9 35q3 13 14 19 7 4 15 4 4 0 8-1 121-34 209.5-122.5T1064 732q4-12-2.5-23t-18.5-14l-36-9q-3-1-7-1z"/></svg>