<svg xmlns="http://www.w3.org/2000/svg" viewBox="0 0 1200 1200"><path d="M862 127l276-116q25-18 43.5-8t18.5 41v1106q0 21-14.5 35.5T1150 1200H950q-21 0-35.5-14.5T900 1150V753q-4-1-11-5t-24-17.5-30-29-24-42-11-56.5V244q0-31 18.5-65t43.5-52zM550 0q22 0 34.5 12.5T599 37l1 13v450q0 28-10.5 59.5t-25 56-29 45T510 692l-10 11v447q0 21-14.5 35.5T450 1200H250q-21 0-35.5-14.5T200 1150V703q-4-4-11-11.5T165 661t-30-46-24-55-11-60V50q0-2 .5-5.5t4-12 8.5-15 14.5-12T150 0q20 0 32.5 12.5T197 37l3 13v350h100V44.5l2.5-12 7-15 15-12L350 0q23 0 35.5 12.5T399 37l1 13v350h100V50q0-2 .5-5.5t3-12 7-15 15-12T550 0z"/></svg>