<svg xmlns="http://www.w3.org/2000/svg" viewBox="0 0 1200 1200"><path d="M600 23q117 0 224 45.5t184.5 123 123 184.5 45.5 224-45.5 224-123 184.5-184.5 123-224 45.5-224-45.5-184.5-123T68.5 824 23 600t45.5-224 123-184.5T376 68.5 600 23zm0 150q-116 0-214.5 57T230 385.5 173 600t57 214.5T385.5 970t214.5 57 214.5-57T970 814.5t57-214.5-57-214.5T814.5 230 600 173zm-75 127h150q10 0 17.5 7.5T700 325v275h137q21 0 26 11.5t-8 27.5L632 914q-13 16-32 16t-32-16L345 639q-13-16-8-27.5t26-11.5h137V325q0-10 7.5-17.5T525 300z"/></svg>