<svg xmlns="http://www.w3.org/2000/svg" viewBox="0 0 1200 1200"><path d="M425 100h250q10 0 17.5 7.5T700 125v150q0 10-7.5 17.5T675 300H425q-10 0-17.5-7.5T400 275V125q0-10 7.5-17.5T425 100zm0 300h250q10 0 17.5 7.5T700 425v150q0 10-7.5 17.5T675 600H425q-10 0-17.5-7.5T400 575V425q0-10 7.5-17.5T425 400zm400 0h250q10 0 17.5 7.5t7.5 17.5v150q0 10-7.5 17.5T1075 600H825q-10 0-17.5-7.5T800 575V425q0-10 7.5-17.5T825 400zM25 700h250q10 0 17.5 7.5T300 725v150q0 10-7.5 17.5T275 900H25q-10 0-17.5-7.5T0 875V725q0-10 7.5-17.5T25 700zm400 0h250q10 0 17.5 7.5T700 725v150q0 10-7.5 17.5T675 900H425q-10 0-17.5-7.5T400 875V725q0-10 7.5-17.5T425 700zm400 0h250q10 0 17.5 7.5t7.5 17.5v150q0 10-7.5 17.5T1075 900H825q-10 0-17.5-7.5T800 875V725q0-10 7.5-17.5T825 700zM25 1000h250q10 0 17.5 7.5t7.5 17.5v150q0 10-7.5 17.5T275 1200H25q-10 0-17.5-7.5T0 1175v-150q0-10 7.5-17.5T25 1000zm400 0h250q10 0 17.5 7.5t7.5 17.5v150q0 10-7.5 17.5T675 1200H425q-10 0-17.5-7.5T400 1175v-150q0-10 7.5-17.5t17.5-7.5zm400 0h250q10 0 17.5 7.5t7.5 17.5v150q0 10-7.5 17.5t-17.5 7.5H825q-10 0-17.5-7.5T800 1175v-150q0-10 7.5-17.5t17.5-7.5z"/></svg>