<svg xmlns="http://www.w3.org/2000/svg" viewBox="0 0 1200 1200"><path d="M600 106q82 0 160.5 22.5t140 59T1017 270t94.5 95 68 95 42.5 82.5 14 57.5-14 57.5-43 82.5-68.5 95-94.5 95-116.5 82.5-140 59T600 1094t-159.5-22.5-140-59T184 930t-94.5-95T21 740t-43-82.5-14-57.5 14-57.5T20.5 460t68-95 94.5-95 116.5-82.5 140-59T600 106zm288 265q-15-15-18-12t5 22q25 57 25 119 0 124-88 212t-212 88-212-88-88-212q0-59 23-114 8-19 4.5-22T310 376q-70 69-160 184-13 16-15 40.5t9 42.5q22 36 47 71t70 82 92.5 81 113 58.5T600 960t133.5-24 113-58.5T939 796t70-81.5 47-70.5q11-18 9-42.5t-14-41.5q-90-117-163-189zM448 473l-35 36q-15 15-19.5 38.5T398 589q37 68 93 116 16 13 38.5 11t36.5-17l35-34q14-15 12.5-33.5T597 598q-44-44-89-117-11-18-28-20t-32 12z"/></svg>