<svg xmlns="http://www.w3.org/2000/svg" viewBox="0 0 1200 1200"><path d="M592 1200H444l31-120q-91-20-175.5-68.5T156 905 52.5 786-14 676t-22-76q0-21 14-57.5T20.5 460t68-95 94.5-95 116.5-82.5 140-59T600 106q61 0 126 15L758 0h148zm352-770l47-181q108 85 176.5 192t68.5 159q0 26-19.5 71T1157 773t-93 112-129 104.5-158 75.5l46-173q77-49 136-117t97-131q11-18 9-42.5t-14-41.5q-54-70-107-130zm-634-54q-70 69-160 184-13 16-15 40.5t9 42.5q18 30 39 60t57 70.5 74 73 90 61T509 949l41-154q-107-18-178.5-101.5T300 500q0-59 23-114 8-19 4.5-22T310 376zm138 97l-35 36q-15 15-19.5 38.5T398 589q37 68 93 116 16 13 38.5 11t36.5-17l12-11 22-86-3-4q-44-44-89-117-11-18-28-20t-32 12z"/></svg>