<svg xmlns="http://www.w3.org/2000/svg" viewBox="0 0 1200 1200"><path d="M25 100h1150q10 0 17.5 7.5t7.5 17.5v1050q0 10-7.5 17.5t-17.5 7.5H25q-10 0-17.5-7.5T0 1175V125q0-10 7.5-17.5T25 100zm75 100v100h100V200H100zm775 0H325q-10 0-17.5 7.5T300 225v350q0 10 7.5 17.5T325 600h550q10 0 17.5-7.5T900 575V225q0-10-7.5-17.5T875 200zm125 0v100h100V200h-100zM100 400v100h100V400H100zm900 0v100h100V400h-100zM100 600v100h100V600H100zm900 0v100h100V600h-100zM875 700H325q-10 0-17.5 7.5T300 725v350q0 10 7.5 17.5t17.5 7.5h550q10 0 17.5-7.5t7.5-17.5V725q0-10-7.5-17.5T875 700zM100 800v100h100V800H100zm900 0v100h100V800h-100zm-900 200v100h100v-100H100zm900 0v100h100v-100h-100z"/></svg>