<svg xmlns="http://www.w3.org/2000/svg" viewBox="0 0 1200 1200"><path d="M356 327L719 97q31-16 53 6l110 112q13 13 13.5 32T884 281l-84 121h302q84 0 138 38t54 110-55 111-139 39H994l-131 339q-6 21-19.5 41t-28.5 20H473q-7 0-90-81t-83-94V400q0-17 14-35.5t28-28.5zm44 81v503l100 89h293l131-339q6-21 19.5-41t28.5-20h203q21 0 30.5-25t.5-50-31-25H700.5l-6-.5-5-1.5-5-2-4-2.5-4-4-2.5-4.5q-12-25 5-47l146-183-86-83zm-350-8h100q21 0 35.5 14.5T200 450v500q0 21-14.5 35.5T150 1000H50q-21 0-35.5-14.5T0 950V450q0-21 14.5-35.5T50 400z"/></svg>