<svg xmlns="http://www.w3.org/2000/svg" viewBox="0 0 1200 1200"><path d="M475 97l366 230q2 1 6 3.5t14 10.5 18 16.5 14.5 20T900 400v525q0 13-86 94t-93 81H379q-15 0-28.5-20t-19.5-41L200 700H94q-85 0-139.5-39T-100 550t54-110 138-38h302l-85-121q-11-15-10.5-34t13.5-32l110-112q22-22 53-6zM370 255l146 183q17 22 5 47-2 2-3.5 4.5t-4 4-4 2.5-5 2-5 1.5-6 .5H0v100h221q15 0 29 20t20 41l130 339h294l106-89V408L458 172zm680 145h100q21 0 35.5 14.5T1200 450v500q0 21-14.5 35.5T1150 1000h-100q-21 0-35.5-14.5T1000 950V450q0-21 14.5-35.5T1050 400z"/></svg>