<svg xmlns="http://www.w3.org/2000/svg" viewBox="0 0 1200 1200"><path d="M550-94q72 0 111 55t39 139v106l339 131q21 6 41 19.5t20 28.5v342q0 7-81 90t-94 83H400q-17 0-35.5-14T336 858l-9-14L97 481q-16-31 6-53l112-110q13-13 32-13.5t34 11.5l121 84V98q0-84 38-138t110-54zm50 322V25q0-21-25-30.5T525-6t-25 31v474.5l-.5 6-1.5 5-2 5-2.5 4-4 4-4.5 2.5q-25 12-47-5L255 375l-83 86 236 339h503l89-100V407L661 276q-21-6-41-19.5T600 228zm-150 772h500q21 0 35.5 14.5t14.5 35.5v100q0 21-14.5 35.5T950 1200H450q-21 0-35.5-14.5T400 1150v-100q0-21 14.5-35.5T450 1000z"/></svg>