<svg xmlns="http://www.w3.org/2000/svg" viewBox="0 0 1200 1200"><path d="M350 100h500q21 0 35.5-14.5T900 50V-50q0-21-14.5-35.5T850-100H350q-21 0-35.5 14.5T300-50V50q0 21 14.5 35.5T350 100zm250 794v106q0 84-39 139t-111 55-110-54-38-138V700l-121 84q-15 12-34 11.5T115 782L3 672q-22-22-6-53l230-363q1-2 3.5-6t10.5-13.5 16.5-17 20-13.5 22.5-6h525q13 0 94 83t81 90v342q0 15-20 28.5T939 763zM308 300L72 639l83 86 183-146q22-17 47-5 2 1 4.5 2.5t4 4 2.5 4 2 5 1.5 5 .5 6V1075q0 22 25 31t50-.5 25-30.5V872q0-15 20-28.5t41-19.5l339-131V400l-89-100H308z"/></svg>