<svg xmlns="http://www.w3.org/2000/svg" viewBox="0 0 1200 1200"><path d="M600 25q116 0 227 49.5t192.5 131 131 192.5 49.5 227v300q0 10-7.5 17.5T1175 950h-50q-10 0-17.5-7.5T1100 925V625q0-127-70.5-231.5T845 232t-245-57-245 57-184.5 161.5T100 625v300q0 10-7.5 17.5T75 950H25q-10 0-17.5-7.5T0 925V625q0-116 49.5-227t131-192.5T373 74.5 600 25zM220 700h160q8 0 14 6t6 14v460q0 8-6 14t-14 6H220q-8 0-14-6t-6-14V720q0-8 6-14t14-6zm600 0h160q8 0 14 6t6 14v460q0 8-6 14t-14 6H820q-8 0-14-6t-6-14V720q0-8 6-14t14-6z"/></svg>