<svg xmlns="http://www.w3.org/2000/svg" viewBox="0 0 1200 1200"><path d="M649 251q48-68 109.5-104T880 108.5t118.5 20 102.5 64 71 100.5 27 123q0 57-33.5 117.5t-94 124.5T945 785.5 795 938t-146 174q-62-85-145.5-174t-150-152.5T227 658t-93.5-124.5T100 416q0-64 28-123t73-100.5 104-64 119-20T544.5 147 649 251zm247-23q-33 0-64.5 19T775 293t-47.5 53.5T684 392t-37.5 19-36-19-40-45.5-43-53.5-54-46-65.5-19q-67 0-122.5 55.5T230 416q0 23 13.5 51t46 65 57.5 63 76 75l22 22q15 14 44 44t50.5 51 46 44 41 35 23 12 23.5-12 42.5-36 46-44 52.5-52 44-43q4-4 12-13 43-41 63.5-62t52-55 46-55 26-46 11.5-44q0-79-53-133.5T896 228z"/></svg>