<svg xmlns="http://www.w3.org/2000/svg" viewBox="0 0 1200 1200"><path d="M1000 0v150q0 21-14.5 35.5T950 200h-50v100q0 91-49.5 165.5T720 575q81 35 130.5 109.5T900 850v150h50q21 0 35.5 14.5t14.5 35.5v150H200v-150q0-21 14.5-35.5T250 1000h50V850q0-91 49.5-165.5T480 575q-81-35-130.5-109.5T300 300V200h-50q-21 0-35.5-14.5T200 150V0h800zM400 200v100q0 60 32.5 109.5T520 483q28 12 44 37t16 55-16 55-44 37q-55 24-87.5 73.5T400 850v150h400V850q0-60-32.5-109.5T680 667q-28-12-44-37t-16-55 16-55 44-37q55-24 87.5-73.5T800 300V200H400z"/></svg>