<svg xmlns="http://www.w3.org/2000/svg" viewBox="0 0 1200 1200"><path d="M50 100h100q21 0 35.5 14.5T200 150v100q0 21-14.5 35.5T150 300H50q-21 0-35.5-14.5T0 250V150q0-21 14.5-35.5T50 100zm850 1100H800V100h100v1100zM50 400h500q21 0 35.5 14.5T600 450v100q0 21-14.5 35.5T550 600H50q-21 0-35.5-14.5T0 550V450q0-21 14.5-35.5T50 400zm1050 200h200v100h-200v75L933 650l167-125v75zM50 700h300q21 0 35.5 14.5T400 750v100q0 21-14.5 35.5T350 900H50q-21 0-35.5-14.5T0 850V750q0-21 14.5-35.5T50 700zm0 300h600q21 0 35.5 14.5T700 1050v100q0 21-14.5 35.5T650 1200H50q-21 0-35.5-14.5T0 1150v-100q0-21 14.5-35.5T50 1000z"/></svg>