<svg xmlns="http://www.w3.org/2000/svg" viewBox="0 0 1200 1200"><path d="M400 1200H300V100h100v1100zM550 100h100q21 0 35.5 14.5T700 150v100q0 21-14.5 35.5T650 300H550q-21 0-35.5-14.5T500 250V150q0-21 14.5-35.5T550 100zm0 300h500q21 0 35.5 14.5T1100 450v100q0 21-14.5 35.5T1050 600H550q-21 0-35.5-14.5T500 550V450q0-21 14.5-35.5T550 400zM267 650L100 775v-75h-200V600h200v-75zm283 50h300q21 0 35.5 14.5T900 750v100q0 21-14.5 35.5T850 900H550q-21 0-35.5-14.5T500 850V750q0-21 14.5-35.5T550 700zm0 300h600q21 0 35.5 14.5t14.5 35.5v100q0 21-14.5 35.5T1150 1200H550q-21 0-35.5-14.5T500 1150v-100q0-21 14.5-35.5T550 1000z"/></svg>