<svg xmlns="http://www.w3.org/2000/svg" viewBox="0 0 1200 1200"><path d="M600 23q117 0 224 45.5t184.5 123 123 184.5 45.5 224-45.5 224-123 184.5-184.5 123-224 45.5-224-45.5-184.5-123T68.5 824 23 600t45.5-224 123-184.5T376 68.5 600 23zm75 177H525q-10 0-17.5 7.5T500 225v150q0 10 7.5 17.5T525 400h150q10 0 17.5-7.5T700 375V225q0-10-7.5-17.5T675 200zm0 300H425q-10 0-17.5 7.5T400 525v50q0 10 7.5 17.5T425 600h75v200h-75q-10 0-17.5 7.5T400 825v50q0 10 7.5 17.5T425 900h350q10 0 17.5-7.5T800 875v-50q0-10-7.5-17.5T775 800h-75V525q0-10-7.5-17.5T675 500z"/></svg>