<svg xmlns="http://www.w3.org/2000/svg" viewBox="0 0 1200 1200"><path d="M50 100h100q21 0 35.5 14.5T200 150v100q0 21-14.5 35.5T150 300H50q-21 0-35.5-14.5T0 250V150q0-21 14.5-35.5T50 100zm300 0h800q21 0 35.5 14.5T1200 150v100q0 21-14.5 35.5T1150 300H350q-21 0-35.5-14.5T300 250V150q0-21 14.5-35.5T350 100zM50 400h100q21 0 35.5 14.5T200 450v100q0 21-14.5 35.5T150 600H50q-21 0-35.5-14.5T0 550V450q0-21 14.5-35.5T50 400zm300 0h800q21 0 35.5 14.5T1200 450v100q0 21-14.5 35.5T1150 600H350q-21 0-35.5-14.5T300 550V450q0-21 14.5-35.5T350 400zM50 700h100q21 0 35.5 14.5T200 750v100q0 21-14.5 35.5T150 900H50q-21 0-35.5-14.5T0 850V750q0-21 14.5-35.5T50 700zm300 0h800q21 0 35.5 14.5T1200 750v100q0 21-14.5 35.5T1150 900H350q-21 0-35.5-14.5T300 850V750q0-21 14.5-35.5T350 700zM50 1000h100q21 0 35.5 14.5T200 1050v100q0 21-14.5 35.5T150 1200H50q-21 0-35.5-14.5T0 1150v-100q0-21 14.5-35.5T50 1000zm300 0h800q21 0 35.5 14.5t14.5 35.5v100q0 21-14.5 35.5T1150 1200H350q-21 0-35.5-14.5T300 1150v-100q0-21 14.5-35.5T350 1000z"/></svg>