<svg xmlns="http://www.w3.org/2000/svg" viewBox="0 0 1200 1200"><path d="M125 0h1050q10 0 17.5 7.5T1200 25v1150q0 10-7.5 17.5t-17.5 7.5H125q-10 0-17.5-7.5T100 1175V25q0-10 7.5-17.5T125 0zm950 200H225q-10 0-17.5 7.5T200 225v850q0 10 7.5 17.5t17.5 7.5h850q10 0 17.5-7.5t7.5-17.5V225q0-10-7.5-17.5T1075 200zM325 300h50q10 0 17.5 7.5T400 325v50q0 10-7.5 17.5T375 400h-50q-10 0-17.5-7.5T300 375v-50q0-10 7.5-17.5T325 300zm200 0h450q10 0 17.5 7.5t7.5 17.5v50q0 10-7.5 17.5T975 400H525q-10 0-17.5-7.5T500 375v-50q0-10 7.5-17.5T525 300zM325 500h50q10 0 17.5 7.5T400 525v50q0 10-7.5 17.5T375 600h-50q-10 0-17.5-7.5T300 575v-50q0-10 7.5-17.5T325 500zm200 0h450q10 0 17.5 7.5t7.5 17.5v50q0 10-7.5 17.5T975 600H525q-10 0-17.5-7.5T500 575v-50q0-10 7.5-17.5T525 500zM325 700h50q10 0 17.5 7.5T400 725v50q0 10-7.5 17.5T375 800h-50q-10 0-17.5-7.5T300 775v-50q0-10 7.5-17.5T325 700zm200 0h450q10 0 17.5 7.5t7.5 17.5v50q0 10-7.5 17.5T975 800H525q-10 0-17.5-7.5T500 775v-50q0-10 7.5-17.5T525 700zM325 900h50q10 0 17.5 7.5T400 925v50q0 10-7.5 17.5T375 1000h-50q-10 0-17.5-7.5T300 975v-50q0-10 7.5-17.5T325 900zm200 0h450q10 0 17.5 7.5t7.5 17.5v50q0 10-7.5 17.5T975 1000H525q-10 0-17.5-7.5T500 975v-50q0-10 7.5-17.5T525 900z"/></svg>