<svg xmlns="http://www.w3.org/2000/svg" viewBox="0 0 1200 1200"><path d="M150 100h1000q21 0 35.5 14.5T1200 150t-14.5 35.5T1150 200h-50v200h50q21 0 35.5 14.5T1200 450t-14.5 35.5T1150 500h-50v200h50q21 0 35.5 14.5T1200 750t-14.5 35.5T1150 800h-50v200h50q21 0 35.5 14.5t14.5 35.5-14.5 35.5-35.5 14.5H150q-21 0-35.5-14.5T100 1050t14.5-35.5T150 1000h50V800h-50q-21 0-35.5-14.5T100 750t14.5-35.5T150 700h50V500h-50q-21 0-35.5-14.5T100 450t14.5-35.5T150 400h50V200h-50q-21 0-35.5-14.5T100 150t14.5-35.5T150 100z"/></svg>