<svg xmlns="http://www.w3.org/2000/svg" viewBox="0 0 1200 1200"><path d="M600 23q117 0 224 45.5t184.5 123 123 184.5 45.5 224-45.5 224-123 184.5-184.5 123-224 45.5-224-45.5-184.5-123T68.5 824 23 600t45.5-224 123-184.5T376 68.5 600 23zm0 150q-116 0-214.5 57T230 385.5 173 600t57 214.5T385.5 970t214.5 57 214.5-57T970 814.5t57-214.5-57-214.5T814.5 230 600 173zm182 239l106 106q7 7 7 17.5t-7 17.5L568 874q-8 7-18 7t-18-7L330 671q-8-7-8-17.5t8-17.5l106-106q7-8 17.5-8t17.5 8l79 79 197-197q7-7 17.5-7t17.5 7z"/></svg>