<svg xmlns="http://www.w3.org/2000/svg" viewBox="0 0 1200 1200"><path d="M484 105h195q75 0 146 32.5t124 86 89.5 122.5 48.5 142q18 14 35 20 31 10 64.5-6.5T1230 453q10-34-15-71-19-27-9-43 5-8 12.5-11t19 1 23.5 16q41 44 39 105-3 63-46 106.5T1150 600h-62q-7 55-35 117t-56 100l-39 234q-3 20-20 34.5t-38 14.5H800q-21 0-33-14.5t-9-34.5l12-70q-49 14-91 14H484q-24 0-65-8l-11 64q-3 20-20 34.5t-38 14.5H250q-21 0-33-14.5t-9-34.5l26-157q-84-74-128-175l-159-53q-19-7-33-26t-14-40v-50q0-21 14.5-35.5T-50 500H74q11-87 56-166L19 239Q3 225 6.5 215.5T31 206h203q116-101 250-101zm191 95H425q-10 0-17.5 7.5T400 225v50q0 10 7.5 17.5T425 300h250q10 0 17.5-7.5T700 275v-50q0-10-7.5-17.5T675 200z"/></svg>