<svg xmlns="http://www.w3.org/2000/svg" viewBox="0 0 1200 1200"><path d="M600 23q117 0 224 45.5t184.5 123 123 184.5 45.5 224-45.5 224-123 184.5-184.5 123-224 45.5-224-45.5-184.5-123T68.5 824 23 600t45.5-224 123-184.5T376 68.5 600 23zm-12 236q-29 0-59 5.5T466 285t-58 38.5-41.5 63T350 476q0 25 20 25h131q30 5 35-11 6-20 20.5-28t45.5-8q20 0 31.5 10.5T645 493q0 23-7 34t-26 18q-1 0-13.5 4t-19.5 7.5-20 10.5-22 17-18.5 24-15.5 35-8 46q-1 8 5.5 16.5T521 714h173q7 0 22-8t35-28 37.5-48 29.5-74 12-100q0-47-17-83t-42.5-57-59.5-34.5-64-18-59-4.5zm87 541H525q-10 0-17.5 7.5T500 825v150q0 10 7.5 17.5t17.5 7.5h150q10 0 17.5-7.5T700 975V825q0-10-7.5-17.5T675 800z"/></svg>