<svg xmlns="http://www.w3.org/2000/svg" viewBox="0 0 1200 1200"><path d="M600 23q117 0 224 45.5t184.5 123 123 184.5 45.5 224-45.5 224-123 184.5-184.5 123-224 45.5-224-45.5-184.5-123T68.5 824 23 600t45.5-224 123-184.5T376 68.5 600 23zm141.5 264q-12.5 0-21.5 9L600 416 480 296q-9-9-21.5-9t-21.5 9L296 437q-9 9-9 21.5t9 21.5l120 120-120 120q-9 9-9 21.5t9 21.5l141 141q9 9 21.5 9t21.5-9l120-120 120 120q9 9 21.5 9t21.5-9l141-141q9-9 9-21.5t-9-21.5L784 600l120-120q9-9 9-21.5t-9-21.5L763 296q-9-9-21.5-9z"/></svg>