<svg xmlns="http://www.w3.org/2000/svg" viewBox="0 0 1200 1200"><path d="M600 23q117 0 224 45.5t184.5 123 123 184.5 45.5 224-45.5 224-123 184.5-184.5 123-224 45.5-224-45.5-184.5-123T68.5 824 23 600t45.5-224 123-184.5T376 68.5 600 23zm0 150q-116 0-214.5 57T230 385.5 173 600t57 214.5T385.5 970t214.5 57 214.5-57T970 814.5t57-214.5-57-214.5T814.5 230 600 173zm159 204l64 64q7 7 7 17.5t-7 17.5L699 600l124 124q7 7 7 17.5t-7 17.5l-64 64q-7 7-17.5 7t-17.5-7L600 699 476 823q-7 7-17.5 7t-17.5-7l-64-64q-7-7-7-17.5t7-17.5l124-124-124-124q-7-7-7-17.5t7-17.5l64-64q7-7 17.5-7t17.5 7l124 124 124-124q7-7 17.5-7t17.5 7z"/></svg>