<svg xmlns="http://www.w3.org/2000/svg" viewBox="0 0 1200 1200"><path d="M1025 0h150q10 0 17.5 7.5T1200 25v1150q0 10-7.5 17.5t-17.5 7.5h-150q-10 0-17.5-7.5t-7.5-17.5V25q0-10 7.5-17.5T1025 0zM725 400h150q10 0 17.5 7.5T900 425v750q0 10-7.5 17.5T875 1200H725q-10 0-17.5-7.5T700 1175V425q0-10 7.5-17.5T725 400zM425 700h150q10 0 17.5 7.5T600 725v450q0 10-7.5 17.5T575 1200H425q-10 0-17.5-7.5T400 1175V725q0-10 7.5-17.5T425 700zM125 900h150q10 0 17.5 7.5T300 925v250q0 10-7.5 17.5T275 1200H125q-10 0-17.5-7.5T100 1175V925q0-10 7.5-17.5T125 900z"/></svg>