<svg xmlns="http://www.w3.org/2000/svg" viewBox="0 0 1220 1200"><path d="M100 4h1000q41 0 70.5 29.5T1200 104v100q0 41-29.5 70.5T1100 304H100q-41 0-70.5-29.5T0 204V104q0-41 29.5-70.5T100 4zm1000 100H900v100h200V104zM100 404h1000q41 0 70.5 29.5T1200 504v100q0 41-29.5 70.5T1100 704H100q-41 0-70.5-29.5T0 604V504q0-41 29.5-70.5T100 404zm1000 100H600v100h500V504zM100 804h1000q41 0 70.5 29.5T1200 904v100q0 41-29.5 70.5T1100 1104H100q-41 0-70.5-29.5T0 1004V904q0-41 29.5-70.5T100 804zm1000 100H800v100h300V904z"/></svg>