<svg xmlns="http://www.w3.org/2000/svg" viewBox="0 0 1200 1200"><path d="M50 100h400q21 0 35.5 14.5T500 150v400q0 21-14.5 35.5T450 600H50q-21 0-35.5-14.5T0 550V150q0-21 14.5-35.5T50 100zm600 0h400q21 0 35.5 14.5T1100 150v400q0 21-14.5 35.5T1050 600H650q-21 0-35.5-14.5T600 550V150q0-21 14.5-35.5T650 100zM50 700h400q21 0 35.5 14.5T500 750v400q0 21-14.5 35.5T450 1200H50q-21 0-35.5-14.5T0 1150V750q0-21 14.5-35.5T50 700zm600 0h400q21 0 35.5 14.5T1100 750v400q0 21-14.5 35.5T1050 1200H650q-21 0-35.5-14.5T600 1150V750q0-21 14.5-35.5T650 700z"/></svg>