<svg xmlns="http://www.w3.org/2000/svg" viewBox="0 0 1200 1200"><path d="M50 100h200q21 0 35.5 14.5T300 150v200q0 21-14.5 35.5T250 400H50q-21 0-35.5-14.5T0 350V150q0-21 14.5-35.5T50 100zm400 0h700q21 0 35.5 14.5T1200 150v200q0 21-14.5 35.5T1150 400H450q-21 0-35.5-14.5T400 350V150q0-21 14.5-35.5T450 100zM50 500h200q21 0 35.5 14.5T300 550v200q0 21-14.5 35.5T250 800H50q-21 0-35.5-14.5T0 750V550q0-21 14.5-35.5T50 500zm400 0h700q21 0 35.5 14.5T1200 550v200q0 21-14.5 35.5T1150 800H450q-21 0-35.5-14.5T400 750V550q0-21 14.5-35.5T450 500zM50 900h200q21 0 35.5 14.5T300 950v200q0 21-14.5 35.5T250 1200H50q-21 0-35.5-14.5T0 1150V950q0-21 14.5-35.5T50 900zm400 0h700q21 0 35.5 14.5T1200 950v200q0 21-14.5 35.5T1150 1200H450q-21 0-35.5-14.5T400 1150V950q0-21 14.5-35.5T450 900z"/></svg>