<svg xmlns="http://www.w3.org/2000/svg" viewBox="0 0 1200 1200"><path d="M50 100h200q21 0 35.5 14.5T300 150v200q0 21-14.5 35.5T250 400H50q-21 0-35.5-14.5T0 350V150q0-21 14.5-35.5T50 100zm400 0h200q21 0 35.5 14.5T700 150v200q0 21-14.5 35.5T650 400H450q-21 0-35.5-14.5T400 350V150q0-21 14.5-35.5T450 100zm400 0h200q21 0 35.5 14.5T1100 150v200q0 21-14.5 35.5T1050 400H850q-21 0-35.5-14.5T800 350V150q0-21 14.5-35.5T850 100zM50 500h200q21 0 35.5 14.5T300 550v200q0 21-14.5 35.5T250 800H50q-21 0-35.5-14.5T0 750V550q0-21 14.5-35.5T50 500zm400 0h200q21 0 35.5 14.5T700 550v200q0 21-14.5 35.5T650 800H450q-21 0-35.5-14.5T400 750V550q0-21 14.5-35.5T450 500zm400 0h200q21 0 35.5 14.5T1100 550v200q0 21-14.5 35.5T1050 800H850q-21 0-35.5-14.5T800 750V550q0-21 14.5-35.5T850 500zM50 900h200q21 0 35.5 14.5T300 950v200q0 21-14.5 35.5T250 1200H50q-21 0-35.5-14.5T0 1150V950q0-21 14.5-35.5T50 900zm400 0h200q21 0 35.5 14.5T700 950v200q0 21-14.5 35.5T650 1200H450q-21 0-35.5-14.5T400 1150V950q0-21 14.5-35.5T450 900zm400 0h200q21 0 35.5 14.5T1100 950v200q0 21-14.5 35.5T1050 1200H850q-21 0-35.5-14.5T800 1150V950q0-21 14.5-35.5T850 900z"/></svg>