<svg xmlns="http://www.w3.org/2000/svg" viewBox="0 0 1200 1200"><path d="M700-48v78q38 5 72.5 14.5T848 76t71 53.5 52 84T995 332H836q-4-36-10.5-59t-21-45-40-35.5T700 172v307l64 13q34 7 64 16.5t70 32 67.5 52.5 47.5 80 20 112q0 139-89 224t-244 97v77H600v-79q-150-16-237-103-40-40-52.5-93.5T295 768h139q5 77 48.5 126T600 959V624l-27-8q-46-14-79-26.5t-72-36-63-52-40-72.5-16-98q0-70 25-126t67.5-92T490 56t110-27v-77h100zM600 446V172q-29 4-50 11t-42 21.5-31.5 41.5-10.5 65q0 29 7 50.5t16.5 34T518 418t31.5 14 37.5 10q9 3 13 4zm100 207v310q22-2 42.5-6.5t45-15.5 41.5-27 29-42 12-59.5-12.5-59.5-38-44.5-53-31T700 653z"/></svg>