<svg xmlns="http://www.w3.org/2000/svg" viewBox="0 0 1200 1200"><path d="M625 0h150q10 0 17.5 7.5T800 25v109q79 33 131 87.5T984 350q1 46-15 84.5t-39 61-46 38-39 21.5l-17 6q6 0 15 1.5t35 9 50 17.5 53 30 50 45 35.5 64 14.5 84q0 59-11.5 105.5T1041 994t-44 51-49.5 31.5-54.5 16-49.5 6.5-43.5 1v75q0 10-7.5 17.5T775 1200H625q-10 0-17.5-7.5T600 1175v-75H500v75q0 10-7.5 17.5T475 1200H325q-10 0-17.5-7.5T300 1175v-75H125q-10 0-17.5-7.5T100 1075V925q0-10 7.5-17.5T125 900h75V300h-75q-10 0-17.5-7.5T100 275V125q0-10 7.5-17.5T125 100h175V25q0-10 7.5-17.5T325 0h150q10 0 17.5 7.5T500 25v75h100V25q0-10 7.5-17.5T625 0zM400 300v200h263q28 0 48.5-10.5t30-25 15-29T762 410l1-10q0-4-.5-11t-6-24-15-30-30-24-48.5-11H400zm0 400v200h363q28 0 48.5-10.5t30-25 15-29T862 810l1-10q0-4-.5-11t-6-24-15-30-30-24-48.5-11H400z"/></svg>