<svg xmlns="http://www.w3.org/2000/svg" viewBox="0 0 1200 1200"><path d="M507 23q98 0 187.5 38.5T849 165t103.5 154.5T991 507q0 141-78 262l300 299q8 8 8 18.5t-8 18.5l-109 108q-7 8-17.5 8t-18.5-8L768 914q-119 77-261 77-98 0-188-38.5t-154.5-103T61.5 695 23 507t38.5-187.5 103-154.5T319 61.5 507 23zm-.5 154Q417 177 341 221T221 341.5t-44 166T221 673t120 120 165.5 44 166-44T793 673t44-165.5-44-166T672.5 221t-166-44zM425 300h150q10 0 17.5 7.5T600 325v75h75q10 0 17.5 7.5T700 425v150q0 10-7.5 17.5T675 600h-75v75q0 10-7.5 17.5T575 700H425q-10 0-17.5-7.5T400 675v-75h-75q-10 0-17.5-7.5T300 575V425q0-10 7.5-17.5T325 400h75v-75q0-10 7.5-17.5T425 300z"/></svg>